<svg xmlns="http://www.w3.org/2000/svg" viewBox="0 0 448 98.3"><defs><style>.cls-1,.cls-4{fill:none;}.cls-2{fill:#384052;}.cls-3{fill:#ffd506;}.cls-4{stroke:#384052;stroke-miterlimit:10;stroke-width:2px;}</style></defs><g id="Layer_2" data-name="Layer 2"><g id="Layer_1-2" data-name="Layer 1"><rect class="cls-1" width="448" height="98.3"/><path class="cls-2" d="M57.84,73.18,38.77,48.64V73.18H24.45V25H38L56.67,49.79V25H71.39V73.18Z"/><path class="cls-2" d="M151.05,25c15.64,0,25.79,9.62,25.79,24s-10.36,24.11-26.4,24.11H129.88V25Zm-5.66,35.8h6.07c5.68,0,9.34-4.86,9.34-11.83s-4-12-10.08-12h-5.33Z"/><path class="cls-2" d="M203.48,37v5.57h22.68V54.87H203.48v6h24.67V73.18H188.36V25h39.79V37Z"/><path class="cls-3" d="M247.64,73.18V37h-8V25h23.48V73.18Z"/><circle class="cls-2" cx="100.47" cy="49.02" r="18.03"/><path class="cls-2" d="M321.58,32.87V46.23h-2.16V45a4,4,0,0,1-3.19,1.37,4.67,4.67,0,0,1-4.86-4.93,4.67,4.67,0,0,1,4.86-4.92,4,4,0,0,1,3.1,1.3V32.87Zm-2.21,8.55a2.87,2.87,0,1,0-2.87,3A2.82,2.82,0,0,0,319.37,41.42Z"/><path class="cls-2" d="M324.22,33.68a1.37,1.37,0,0,1,1.44-1.35,1.33,1.33,0,0,1,1.44,1.29,1.44,1.44,0,0,1-2.88.06Zm.31,2.93h2.25v9.62h-2.25Z"/><path class="cls-2" d="M339.27,36.61v8.16c0,3.49-1.81,5.07-5.18,5.07a7.64,7.64,0,0,1-4.68-1.36l1-1.7A5.73,5.73,0,0,0,334,47.94c2.13,0,3.06-1,3.06-2.92v-.5a4.23,4.23,0,0,1-3.22,1.27,4.65,4.65,0,1,1,0-9.29,4.14,4.14,0,0,1,3.33,1.39V36.61Zm-2.21,4.52a2.93,2.93,0,1,0-2.92,2.75A2.7,2.7,0,0,0,337.06,41.13Z"/><path class="cls-2" d="M341.92,33.68a1.37,1.37,0,0,1,1.44-1.35,1.33,1.33,0,0,1,1.44,1.29A1.39,1.39,0,0,1,343.36,35,1.37,1.37,0,0,1,341.92,33.68Zm.3,2.93h2.25v9.62h-2.25Z"/><path class="cls-2" d="M353.2,45.7a3.49,3.49,0,0,1-2.16.65c-2.1,0-3.31-1.11-3.31-3.24V38.48h-1.58v-1.8h1.58V34.49H350v2.19h2.58v1.8H350v4.58c0,.93.47,1.44,1.33,1.44a2,2,0,0,0,1.26-.4Z"/><path class="cls-2" d="M363.11,40.59v5.64H361V45.06a3.42,3.42,0,0,1-3,1.29c-2.2,0-3.59-1.21-3.59-2.88s1.08-2.86,4-2.86h2.49v-.15c0-1.31-.8-2.08-2.4-2.08a4.79,4.79,0,0,0-2.92.95l-.88-1.64a6.78,6.78,0,0,1,4.07-1.19C361.5,36.5,363.11,37.82,363.11,40.59Zm-2.25,2.63V42.1h-2.33c-1.53,0-1.94.58-1.94,1.28s.68,1.33,1.84,1.33A2.46,2.46,0,0,0,360.86,43.22Z"/><path class="cls-2" d="M366,32.87h2.25V46.23H366Z"/><path class="cls-2" d="M311.37,63a4.87,4.87,0,0,1,5.21-4.92,4.33,4.33,0,0,1,4.1,2.24l-1.73,1A2.73,2.73,0,0,0,316.56,60a3,3,0,0,0,0,6A2.71,2.71,0,0,0,319,64.69l1.73,1a4.37,4.37,0,0,1-4.1,2.25A4.88,4.88,0,0,1,311.37,63Z"/><path class="cls-2" d="M321.69,63A5.12,5.12,0,1,1,326.8,68,4.84,4.84,0,0,1,321.69,63Zm8,0a2.85,2.85,0,1,0-2.86,3A2.8,2.8,0,0,0,329.66,63Z"/><path class="cls-2" d="M343.56,62.32v5.51h-2.25V62.6c0-1.71-.85-2.53-2.29-2.53-1.6,0-2.68,1-2.68,2.89v4.87h-2.25V58.21h2.14v1.24a4.19,4.19,0,0,1,3.31-1.35C341.85,58.1,343.56,59.42,343.56,62.32Z"/><path class="cls-2" d="M345.32,66.87l.86-1.71a6.49,6.49,0,0,0,3.35,1c1.43,0,2-.4,2-1.07,0-1.83-5.94-.11-5.94-3.94,0-1.82,1.64-3,4.23-3a7.66,7.66,0,0,1,3.6.83l-.86,1.71a5.28,5.28,0,0,0-2.76-.72c-1.37,0-2,.45-2,1.08,0,2,5.94.22,5.94,4,0,1.8-1.66,3-4.36,3A7.66,7.66,0,0,1,345.32,66.87Z"/><path class="cls-2" d="M365,58.21v9.62h-2.15V66.6A3.92,3.92,0,0,1,359.76,68c-2.47,0-4.14-1.35-4.14-4.25V58.21h2.25V63.4c0,1.74.82,2.57,2.25,2.57s2.63-1,2.63-2.9V58.21Z"/><path class="cls-2" d="M368,54.47h2.25V67.83H368Z"/><path class="cls-2" d="M379.39,67.3a3.47,3.47,0,0,1-2.16.65c-2.1,0-3.31-1.11-3.31-3.24V60.08h-1.58v-1.8h1.58V56.09h2.25v2.19h2.58v1.8h-2.58v4.58c0,.93.47,1.44,1.33,1.44a2.07,2.07,0,0,0,1.27-.4Z"/><path class="cls-2" d="M389.3,62.19v5.64h-2.13V66.66a3.42,3.42,0,0,1-3,1.29c-2.2,0-3.59-1.2-3.59-2.88s1.08-2.86,4-2.86h2.49v-.15c0-1.31-.8-2.08-2.4-2.08a4.79,4.79,0,0,0-2.92,1l-.88-1.64a6.78,6.78,0,0,1,4.07-1.19C387.69,58.1,389.3,59.42,389.3,62.19Zm-2.25,2.63V63.7h-2.33c-1.53,0-1.94.58-1.94,1.28s.68,1.33,1.83,1.33A2.46,2.46,0,0,0,387.05,64.82Z"/><path class="cls-2" d="M401.64,62.32v5.51h-2.25V62.6c0-1.71-.84-2.53-2.28-2.53-1.61,0-2.69,1-2.69,2.89v4.87h-2.25V58.21h2.15v1.24a4.16,4.16,0,0,1,3.31-1.35C399.93,58.1,401.64,59.42,401.64,62.32Z"/><path class="cls-2" d="M403.8,63A4.87,4.87,0,0,1,409,58.1a4.33,4.33,0,0,1,4.11,2.24l-1.73,1A2.73,2.73,0,0,0,409,60a3,3,0,0,0,0,6,2.71,2.71,0,0,0,2.39-1.33l1.73,1A4.37,4.37,0,0,1,409,68,4.88,4.88,0,0,1,403.8,63Z"/><path class="cls-2" d="M423.93,58.21l-4.5,10.39c-.89,2.18-2.11,2.84-3.71,2.84a4,4,0,0,1-2.58-.88l.9-1.65a2.46,2.46,0,0,0,1.66.66c.79,0,1.26-.38,1.69-1.33l.16-.38-4.19-9.65h2.34l3,7.11,3-7.11Z"/><line class="cls-4" x1="287.7" y1="25.36" x2="287.7" y2="72.25"/></g></g></svg>